<svg width="129" height="30" viewBox="0 0 129 30" fill="none" xmlns="http://www.w3.org/2000/svg">
<g clip-path="url(#clip0_1687_322)">
<path d="M6.73516 29.9443C5.39541 29.9684 4.06119 29.7677 2.7889 29.3507C1.86848 29.0632 1.00433 28.622 0.233694 28.046L0.115306 27.9482V24.4909C0.090699 24.1775 0.143759 23.8628 0.269865 23.5744C0.335206 23.4598 0.431211 23.3654 0.547277 23.3015C0.663343 23.2376 0.794954 23.2068 0.927576 23.2124H3.12104L3.90043 25.8216C4.19547 26.0927 4.5276 26.3211 4.88699 26.5001C5.44572 26.7466 6.05541 26.8584 6.6661 26.8262C7.42032 26.8524 8.16708 26.6706 8.82339 26.3011C9.07853 26.1518 9.28701 25.9353 9.42574 25.6757C9.56446 25.416 9.62801 25.1234 9.60935 24.8301C9.61993 24.4538 9.49257 24.0865 9.2509 23.7962C8.97265 23.4711 8.63866 23.1972 8.26434 22.9873C7.8297 22.7482 7.37262 22.5516 6.89959 22.4002C6.38328 22.2339 5.91302 22.0741 5.45591 21.9534C4.75179 21.7541 4.06276 21.5055 3.39399 21.2098C2.76445 20.9364 2.18017 20.5702 1.66092 20.1237C1.15599 19.6802 0.748524 19.1384 0.463891 18.532C0.16006 17.8448 0.0108075 17.1002 0.0265133 16.35C0.0115569 15.5307 0.181207 14.7184 0.523085 13.9723C0.842385 13.2878 1.31877 12.6869 1.91414 12.2176C2.54361 11.7321 3.26321 11.3742 4.03197 11.1641C4.91103 10.923 5.81987 10.8056 6.73187 10.8151C8.00232 10.7867 9.26731 10.989 10.4644 11.412C11.4122 11.7628 12.2996 12.2568 13.0952 12.8764L13.2169 12.9743V16.0695C13.2417 16.3843 13.1875 16.7003 13.059 16.9893C12.9933 17.1033 12.8971 17.1971 12.781 17.2604C12.665 17.3237 12.5336 17.354 12.4013 17.3481H10.2112L9.42848 14.8758C9.12085 14.5736 8.75964 14.3304 8.36299 14.1582C7.88674 13.9783 7.37944 13.8929 6.86999 13.9071C6.58009 13.911 6.29092 13.9371 6.0051 13.9854C5.69549 14.0349 5.39579 14.1329 5.11719 14.2757C4.8247 14.4167 4.58174 14.6417 4.41988 14.9215C4.25801 15.2013 4.18473 15.5229 4.20955 15.8445C4.20016 16.0468 4.233 16.2488 4.306 16.438C4.37899 16.6271 4.49058 16.7993 4.63377 16.9436C4.98223 17.2814 5.38585 17.5582 5.82752 17.7623C6.32218 17.9972 6.8373 18.1872 7.36656 18.3298C7.92561 18.4798 8.41561 18.6201 8.83325 18.7538C9.48936 18.9561 10.1301 19.2046 10.7505 19.4974C11.3476 19.7752 11.9013 20.1365 12.3948 20.5705C12.9106 21.0206 13.3197 21.5783 13.5926 22.2037C13.8655 22.829 13.9955 23.5065 13.9733 24.1876C14.0057 25.1455 13.793 26.0958 13.355 26.9502C12.9576 27.6642 12.3938 28.2736 11.7107 28.7277C11.0113 29.1851 10.2298 29.5051 9.40875 29.6703C8.52972 29.8545 7.63358 29.9463 6.73516 29.9443Z" fill="#454F59"/>
<path d="M38.8215 29.8598C37.782 29.8978 36.7451 29.7327 35.7698 29.3738C35.0269 29.0747 34.3944 28.5568 33.9578 27.8898C33.5218 27.1862 33.2447 26.3973 33.1455 25.5773C33.0124 24.5783 32.9497 23.5713 32.9581 22.5636V18.6106H31.521L30.8435 16.3993V16.3503C30.8375 16.2187 30.8684 16.0881 30.9328 15.9729C30.9973 15.8577 31.0927 15.7625 31.2085 15.698C31.4995 15.5733 31.8166 15.5207 32.1326 15.5447H35.7994C36.1164 15.521 36.4346 15.5736 36.7267 15.698C36.8418 15.7634 36.9366 15.8587 37.001 15.9737C37.0653 16.0887 37.0967 16.2189 37.0918 16.3503V23.4051C37.093 23.7941 37.115 24.1828 37.1575 24.5695C37.1991 24.9206 37.3109 25.2599 37.4864 25.5676C37.6582 25.8655 37.9053 26.1139 38.2033 26.2884C38.6144 26.5009 39.0755 26.6 39.5384 26.5754C40.0386 26.5862 40.535 26.487 40.992 26.2851C41.2913 26.15 41.5823 25.9976 41.8635 25.8285V18.6106H40.2817L39.6042 16.3993V16.3503C39.5982 16.2187 39.6291 16.0881 39.6935 15.9729C39.758 15.8577 39.8534 15.7625 39.9692 15.698C40.2604 15.5741 40.5774 15.5215 40.8933 15.5447H44.7048C45.0207 15.5215 45.3377 15.5741 45.6288 15.698C45.7444 15.7628 45.8396 15.858 45.9041 15.9732C45.9685 16.0883 45.9996 16.2188 45.9939 16.3503V26.546H47.431L48.1117 28.7574V28.8063C48.1166 28.9377 48.0852 29.068 48.0209 29.1829C47.9566 29.2979 47.8617 29.3933 47.7467 29.4586C47.4545 29.5831 47.1364 29.6357 46.8193 29.6119H43.3597L42.9651 28.6824C42.4309 28.9546 41.882 29.1974 41.3208 29.4097C40.5223 29.7093 39.6753 29.8619 38.8215 29.8598Z" fill="#454F59"/>
<path d="M50.0027 29.6093C49.6853 29.6339 49.3667 29.5801 49.0753 29.4528C48.9599 29.3881 48.8649 29.2928 48.801 29.1776C48.7371 29.0624 48.7068 28.9318 48.7136 28.8005V28.7515L49.391 26.5402H50.9695V18.6113H49.391L48.6873 16.3999V16.351C48.6812 16.2194 48.7121 16.0887 48.7766 15.9736C48.841 15.8584 48.9365 15.7632 49.0523 15.6987C49.3523 15.5739 49.6788 15.5246 50.0027 15.5552H53.5806L54.0345 16.6217C54.5235 16.2795 55.051 15.9949 55.6064 15.7737C56.3712 15.4619 57.19 15.3013 58.0169 15.3008C58.3478 15.3031 58.6778 15.3337 59.0035 15.3921L59.2172 15.428L59.2665 15.6367C59.4332 16.3217 59.5691 16.85 59.6743 17.2219C59.7796 17.5937 59.8519 17.8807 59.8914 18.0829C59.9275 18.2623 59.9538 18.3895 59.9703 18.458V18.5004V18.5395C59.9786 18.6258 59.9679 18.7129 59.9389 18.7947C59.9098 18.8765 59.8632 18.951 59.8021 19.0131C59.7411 19.0752 59.6671 19.1234 59.5854 19.1542C59.5037 19.1851 59.4162 19.1979 59.329 19.1918C58.9448 19.1882 58.5646 19.1141 58.2076 18.9733C57.8514 18.8511 57.4762 18.7926 57.0994 18.8005C56.7043 18.8006 56.3124 18.8702 55.9418 19.0059C55.6338 19.1128 55.3451 19.2681 55.0868 19.4658V26.5467H56.9481L57.6256 28.7581V28.807C57.6312 28.9381 57.6004 29.0683 57.5367 29.1833C57.4729 29.2983 57.3785 29.3938 57.2638 29.4593C56.9717 29.5838 56.6535 29.6363 56.3364 29.6126L50.0027 29.6093Z" fill="#454F59"/>
<path d="M67.3433 30.0012C64.9986 30.0012 63.203 29.3488 62.006 28.0442C60.809 26.7396 60.1973 24.9066 60.1973 22.5941C60.1814 21.5347 60.3562 20.481 60.7136 19.4826C61.0271 18.6151 61.5161 17.8204 62.1507 17.1473C62.7736 16.5024 63.5328 16.0023 64.3737 15.6828C65.2627 15.3458 66.2074 15.1765 67.1592 15.1838C68.1039 15.181 69.0442 15.3128 69.9511 15.5752C70.836 15.8305 71.6534 16.2759 72.3452 16.8798L72.457 16.9777V20.037C72.4804 20.3504 72.4274 20.6648 72.3024 20.9536C72.2371 21.0682 72.1411 21.1626 72.025 21.2265C71.909 21.2904 71.7773 21.3212 71.6447 21.3156H69.5927L68.8001 18.7063C68.5975 18.5961 68.3889 18.497 68.1753 18.4095C67.9402 18.3209 67.6901 18.2778 67.4387 18.2823C66.8855 18.2355 66.3312 18.3592 65.8515 18.6364C65.3718 18.9137 64.9901 19.3311 64.7585 19.8316C64.543 20.277 64.4062 20.7558 64.354 21.2471C64.303 21.6966 64.2755 22.1484 64.2718 22.6006C64.2763 23.0219 64.3081 23.4424 64.3672 23.8596C64.4276 24.3398 64.57 24.8064 64.7881 25.2393C65.0051 25.6752 65.3242 26.0532 65.7188 26.3417C66.1928 26.6564 66.7572 26.8098 67.3269 26.7787C67.7205 26.7834 68.1131 26.7362 68.4943 26.6385C68.8171 26.5499 69.1267 26.4194 69.4151 26.2503C69.6897 26.0899 69.9446 25.8983 70.1747 25.6796C70.4181 25.448 70.6615 25.2132 70.9048 24.9718C70.9706 24.9033 71.0331 24.8413 71.0824 24.7794C71.1414 24.7117 71.2147 24.6576 71.2971 24.621C71.3795 24.5843 71.469 24.566 71.5592 24.5674C71.6898 24.5636 71.8178 24.6042 71.9219 24.6825C72.026 24.7608 72.1 24.8721 72.1314 24.9979L72.7891 27.6398L72.674 27.7702C72.3932 28.0862 72.0875 28.3796 71.7598 28.6476C71.4015 28.9354 71.0069 29.1755 70.5858 29.3619C70.1216 29.5689 69.6366 29.7263 69.1389 29.8316C68.5482 29.9517 67.9462 30.0085 67.3433 30.0012Z" fill="#454F59"/>
<path d="M81.2435 30.0012C78.9185 30.0012 77.1196 29.3489 75.893 28.0443C74.6664 26.7396 74.0547 24.9131 74.0547 22.6007C74.0547 20.2882 74.6631 18.4552 75.8634 17.1571C77.0637 15.859 78.8625 15.2002 81.1876 15.2002C82.2332 15.1599 83.2733 15.3703 84.2196 15.8133C84.9583 16.1847 85.5948 16.7288 86.0744 17.3985C86.5247 18.0507 86.8348 18.7879 86.9853 19.5642C87.1374 20.3159 87.2156 21.0805 87.2188 21.8473V22.8584L87.1727 22.9366C87.0432 23.1948 86.8182 23.3935 86.5446 23.4911C86.2502 23.557 85.9484 23.5844 85.6469 23.5726H78.116C78.1486 23.8608 78.2014 24.1463 78.2739 24.4272C78.3748 24.8349 78.5462 25.2222 78.7803 25.572C79.0219 25.9275 79.3425 26.2232 79.7176 26.4363C80.1805 26.6835 80.7017 26.8029 81.227 26.782C81.9716 26.7926 82.709 26.6365 83.3843 26.3254C84.0006 26.0392 84.5668 25.6572 85.0615 25.1936C85.1272 25.1317 85.1864 25.0664 85.2391 25.0077C85.2972 24.9389 85.3703 24.8841 85.4529 24.8474C85.5355 24.8107 85.6254 24.793 85.7159 24.7957C85.8467 24.7916 85.9749 24.8326 86.0786 24.9117C86.1823 24.9908 86.2552 25.1031 86.2848 25.2295L86.8965 27.5909L86.7781 27.7214C86.0734 28.4763 85.2125 29.0711 84.2544 29.4652C83.2963 29.8593 82.2635 30.0432 81.227 30.0045L81.2435 30.0012ZM83.335 20.8101C83.335 20.6959 83.3087 20.5263 83.2857 20.3045C83.2447 19.9561 83.1493 19.6161 83.0028 19.2967C82.8429 18.9454 82.6137 18.6293 82.3287 18.3672C82.0124 18.0992 81.6024 17.9657 81.1876 17.9953C80.7197 17.9792 80.2549 18.0754 79.8327 18.2758C79.4903 18.4551 79.1908 18.7054 78.9546 19.0097C78.7224 19.3197 78.5435 19.6658 78.4252 20.0338C78.3442 20.289 78.2761 20.5481 78.2213 20.8101H83.335Z" fill="#454F59"/>
<path d="M89.4648 29.6094C89.1474 29.634 88.8288 29.5802 88.5375 29.4529C88.422 29.3882 88.327 29.2929 88.2631 29.1777C88.1992 29.0625 88.169 28.9319 88.1757 28.8005V28.7516L88.8532 26.5403H90.4514V11.8371H88.8729L88.1955 9.62572V9.5768C88.1898 9.44565 88.2206 9.31549 88.2844 9.20047C88.3482 9.08545 88.4425 8.98999 88.5572 8.92448C88.8494 8.80002 89.1675 8.74743 89.4846 8.77119H93.2796C93.5955 8.74796 93.9125 8.80054 94.2037 8.92448C94.3187 8.98984 94.4135 9.08518 94.4779 9.20016C94.5422 9.31514 94.5736 9.44539 94.5687 9.5768V26.537H96.0058L96.6865 28.7484V28.7973C96.6915 28.9287 96.6601 29.0589 96.5957 29.1739C96.5314 29.2889 96.4365 29.3842 96.3215 29.4496C96.0293 29.5741 95.7112 29.6267 95.3941 29.6029L89.4648 29.6094Z" fill="#454F59"/>
<path d="M122.377 29.8588C121.517 29.8772 120.662 29.7264 119.861 29.4152C119.394 29.2237 118.939 29.0059 118.497 28.7629L118.138 29.6175H116.823C116.505 29.6425 116.187 29.5887 115.895 29.4609C115.78 29.3962 115.685 29.301 115.621 29.1857C115.557 29.0705 115.527 28.9399 115.534 28.8086V11.8484H113.952L113.274 9.63704V9.58811C113.268 9.4564 113.298 9.32542 113.363 9.2101C113.427 9.09478 113.523 8.99974 113.639 8.9358C113.93 8.80844 114.247 8.75465 114.563 8.77924H118.375C118.691 8.75602 119.008 8.8086 119.299 8.93254C119.415 8.99734 119.51 9.09256 119.574 9.20767C119.639 9.32279 119.67 9.45332 119.664 9.58485V15.9156C119.955 15.7908 120.252 15.6819 120.555 15.5894C121.136 15.4038 121.744 15.3124 122.354 15.3187C123.446 15.2875 124.533 15.4784 125.547 15.8797C126.362 16.2145 127.078 16.75 127.626 17.4355C128.15 18.123 128.517 18.9155 128.701 19.7577C128.911 20.6869 129.013 21.6366 129.007 22.5888C129.007 23.4674 128.905 24.343 128.701 25.198C128.504 26.0449 128.141 26.845 127.632 27.5529C127.097 28.276 126.391 28.8582 125.577 29.2489C124.572 29.6949 123.477 29.9037 122.377 29.8588ZM119.789 25.9449C119.916 26.0673 120.054 26.1766 120.203 26.2711C120.408 26.3996 120.629 26.4994 120.861 26.5679C121.182 26.6575 121.514 26.6993 121.848 26.6918C122.369 26.7046 122.885 26.5748 123.337 26.3167C123.719 26.0863 124.034 25.7616 124.252 25.3742C124.483 24.9551 124.643 24.5011 124.725 24.0304C124.813 23.5416 124.858 23.0462 124.86 22.5496C124.859 22.039 124.814 21.5294 124.725 21.0265C124.645 20.568 124.486 20.1266 124.255 19.7218C124.035 19.3447 123.718 19.0319 123.337 18.8151C122.875 18.5669 122.353 18.4474 121.828 18.4694C121.484 18.4624 121.141 18.5041 120.808 18.5933C120.569 18.6601 120.339 18.7566 120.124 18.8804C119.983 18.9611 119.851 19.0586 119.733 19.1706L119.644 19.2554V25.8145L119.789 25.9449Z" fill="#454F59"/>
<path d="M21.2077 29.974C20.7294 29.9722 20.2577 29.8623 19.8287 29.6526C19.3996 29.443 19.0243 29.139 18.7314 28.764C18.6492 28.6563 18.5736 28.5422 18.5012 28.4378L16.1302 24.3413C15.8543 23.8714 15.709 23.3374 15.709 22.7937C15.709 22.2499 15.8543 21.7159 16.1302 21.246L18.5045 17.1625C18.7798 16.6923 19.1746 16.3017 19.6494 16.0299C20.1243 15.7581 20.6627 15.6144 21.211 15.6133H21.3458C21.5253 15.6129 21.7031 15.6476 21.8691 15.7154C22.0351 15.7832 22.1859 15.8828 22.313 16.0086C22.44 16.1343 22.5409 16.2837 22.6097 16.4481C22.6784 16.6125 22.7139 16.7888 22.7139 16.9668V18.1345C22.7155 18.3665 22.6286 18.5906 22.4706 18.7618C22.3127 18.933 22.0953 19.0386 21.8621 19.0575C21.6873 19.093 21.5231 19.1679 21.3822 19.2765C21.2413 19.3851 21.1276 19.5245 21.0499 19.6837L19.5503 22.2604C19.4574 22.4224 19.4086 22.6056 19.4086 22.792C19.4086 22.9784 19.4574 23.1616 19.5503 23.3237L21.0499 25.9003C21.1275 26.0594 21.2407 26.1988 21.3809 26.3078C21.5211 26.4169 21.6846 26.4928 21.8588 26.5298C22.0923 26.5471 22.3105 26.6517 22.4692 26.8225C22.6279 26.9932 22.7153 27.2173 22.7139 27.4496V28.6172C22.7139 28.977 22.5697 29.3222 22.3132 29.5766C22.0566 29.8311 21.7086 29.974 21.3458 29.974H21.2077Z" fill="#454F59"/>
<path d="M24.8291 29.9727C24.4665 29.9718 24.1191 29.8286 23.8627 29.5743C23.6063 29.3201 23.4619 28.9754 23.4611 28.6159V27.8331C23.457 27.5256 23.5602 27.2261 23.7531 26.9854C23.9461 26.7447 24.217 26.5775 24.52 26.5121C24.6084 26.4935 24.692 26.4569 24.7656 26.4047C24.8392 26.3525 24.9011 26.2858 24.9475 26.2088L26.6246 23.3223C26.7194 23.1615 26.7694 22.9786 26.7694 22.7923C26.7694 22.606 26.7194 22.4231 26.6246 22.2623L24.9475 19.3726C24.9011 19.2956 24.8392 19.2289 24.7656 19.1767C24.692 19.1245 24.6084 19.0879 24.52 19.0692C24.2195 19.005 23.9504 18.8403 23.7576 18.6029C23.5649 18.3654 23.4602 18.0695 23.4611 17.7646V16.9786C23.4619 16.6193 23.6064 16.275 23.8629 16.0212C24.1194 15.7675 24.4668 15.625 24.8291 15.625H24.9672C25.1057 15.6256 25.2441 15.6343 25.3816 15.6511C25.8747 15.7201 26.3445 15.9033 26.7529 16.186L26.9009 16.2936C27.2106 16.5356 27.4717 16.8332 27.6704 17.171L30.048 21.2545C30.3216 21.7257 30.4656 22.26 30.4656 22.8037C30.4656 23.3475 30.3216 23.8817 30.048 24.353L27.6704 28.4365C27.5331 28.6746 27.3651 28.8939 27.1705 29.0888L27.1179 29.1345C26.9719 29.2729 26.8122 29.3964 26.6411 29.503C26.2576 29.7406 25.8288 29.8971 25.3816 29.9629C25.2443 29.9824 25.1059 29.9922 24.9672 29.9922L24.8291 29.9727Z" fill="#454F59"/>
<path d="M113.031 26.3604L108.989 17.7792V15.6591H109.009C109.047 15.663 109.086 15.6551 109.12 15.6363C109.403 15.5562 109.651 15.3878 109.829 15.1562C110.007 14.9246 110.104 14.6423 110.107 14.3512V14.5143C110.106 14.1617 109.965 13.8237 109.713 13.5743C109.462 13.3249 109.121 13.1845 108.765 13.1836H103.214C102.858 13.1836 102.517 13.3238 102.265 13.5734C102.014 13.8229 101.873 14.1614 101.873 14.5143V14.3512C101.874 14.6644 101.987 14.967 102.192 15.2056C102.396 15.4442 102.679 15.6037 102.991 15.6559V17.7759L98.7813 26.3571C98.5322 26.6881 98.3814 27.0816 98.346 27.4931C98.3105 27.9046 98.3918 28.3178 98.5807 28.6859C98.7625 29.0512 99.0435 29.3589 99.3921 29.5744C99.7407 29.7899 100.143 29.9047 100.554 29.9057H111.225C111.636 29.9043 112.038 29.7894 112.387 29.574C112.735 29.3585 113.016 29.051 113.198 28.6859C113.387 28.3178 113.468 27.9046 113.433 27.4931C113.398 27.0816 113.247 26.6881 112.998 26.3571L113.031 26.3604Z" fill="#454F59"/>
<path d="M105.437 11.9501C105.246 11.9492 105.064 11.8737 104.929 11.7399C104.794 11.6061 104.718 11.4249 104.717 11.2358V9.56911C104.717 9.37937 104.793 9.19735 104.928 9.06288C105.062 8.9284 105.246 8.85242 105.437 8.85156H106.279C106.47 8.85242 106.653 8.9284 106.788 9.06288C106.923 9.19735 106.999 9.37937 106.999 9.56911V11.2358C106.998 11.4249 106.922 11.6061 106.787 11.7399C106.652 11.8737 106.47 11.9492 106.279 11.9501H105.437ZM105.437 11.2358H106.279V9.56911H105.437V11.2358Z" fill="#F9A11D"/>
<path d="M106.954 7.13836C106.907 7.13836 106.86 7.12906 106.816 7.11099C106.772 7.09292 106.733 7.06644 106.699 7.03308C106.666 6.99973 106.64 6.96015 106.622 6.91664C106.604 6.87313 106.595 6.82655 106.596 6.77959V4.90418L106.171 5.19772C106.111 5.24002 106.038 5.26279 105.964 5.26295C105.912 5.26327 105.86 5.25213 105.812 5.23032C105.764 5.2085 105.722 5.17654 105.688 5.13671C105.654 5.09687 105.629 5.05014 105.616 4.99981C105.602 4.94948 105.6 4.89679 105.609 4.84547C105.617 4.79824 105.634 4.7531 105.66 4.71274C105.686 4.67239 105.72 4.63766 105.76 4.61064L106.747 3.92571C106.801 3.88905 106.864 3.86769 106.93 3.86389C106.995 3.8601 107.06 3.87402 107.118 3.90417C107.177 3.93432 107.225 3.97956 107.259 4.03506C107.294 4.09056 107.312 4.15422 107.312 4.21925V6.77959C107.312 6.87418 107.275 6.96494 107.208 7.03213C107.141 7.09932 107.049 7.1375 106.954 7.13836Z" fill="#F9A11D"/>
<path d="M106.953 6.96077C106.977 6.96121 107.001 6.95687 107.023 6.94801C107.045 6.93916 107.065 6.92596 107.082 6.90921C107.099 6.89247 107.112 6.87251 107.121 6.85055C107.13 6.82859 107.135 6.80506 107.134 6.78138V4.22104C107.134 4.18879 107.125 4.15713 107.108 4.12952C107.092 4.10192 107.068 4.07942 107.039 4.06448C107.01 4.04784 106.978 4.03906 106.945 4.03906C106.912 4.03906 106.88 4.04784 106.851 4.06448L105.865 4.74942C105.825 4.77703 105.799 4.81876 105.79 4.86569C105.781 4.91262 105.792 4.96102 105.819 5.00056C105.846 5.03871 105.888 5.06454 105.935 5.07247C105.982 5.0804 106.03 5.0698 106.069 5.04296L106.776 4.55372V6.7716C106.776 6.81917 106.795 6.8648 106.829 6.89844C106.862 6.93208 106.909 6.95098 106.956 6.95098L106.953 6.96077Z" fill="#F9A11D"/>
<path d="M104.859 2.57319C104.763 2.57287 104.671 2.53542 104.603 2.46882C104.569 2.43548 104.542 2.39584 104.524 2.35218C104.506 2.30852 104.496 2.2617 104.496 2.21442C104.496 2.16713 104.506 2.12032 104.524 2.07666C104.542 2.033 104.569 1.99336 104.603 1.96002L105.02 1.5458C105.054 1.51252 105.094 1.48618 105.138 1.46827C105.182 1.45036 105.229 1.44124 105.277 1.44142C105.324 1.44094 105.371 1.44994 105.414 1.46788C105.458 1.48582 105.497 1.51232 105.53 1.5458C105.597 1.613 105.635 1.70386 105.635 1.79857C105.635 1.89327 105.597 1.98413 105.53 2.05134L105.109 2.46556C105.076 2.49932 105.037 2.52624 104.994 2.54472C104.95 2.5632 104.903 2.57288 104.856 2.57319H104.859Z" fill="#F9A11D"/>
<path d="M105.404 1.67149C105.388 1.65433 105.368 1.64066 105.346 1.63133C105.324 1.622 105.3 1.61719 105.276 1.61719C105.252 1.61719 105.228 1.622 105.206 1.63133C105.184 1.64066 105.164 1.65433 105.148 1.67149L105.102 1.71716L104.773 2.04331L104.727 2.08898C104.698 2.12315 104.682 2.16703 104.684 2.21195C104.685 2.25686 104.704 2.29953 104.736 2.33151C104.768 2.3635 104.81 2.38247 104.856 2.38466C104.901 2.38686 104.945 2.37213 104.98 2.34338L105.029 2.29445L105.358 1.9683L105.408 1.91937C105.439 1.88558 105.457 1.84095 105.456 1.79478C105.456 1.74861 105.437 1.70445 105.404 1.67149Z" fill="#F9A11D"/>
<path d="M106.309 1.13156C106.262 1.13156 106.215 1.12237 106.172 1.1045C106.128 1.08664 106.089 1.06045 106.056 1.02744C106.022 0.994425 105.996 0.955233 105.978 0.912101C105.96 0.868968 105.951 0.822738 105.951 0.776052C105.948 0.728605 105.957 0.681257 105.975 0.637314C105.993 0.593372 106.021 0.553897 106.056 0.521649L106.473 0.104168C106.541 0.0374449 106.633 0 106.728 0C106.824 0 106.915 0.0374449 106.983 0.104168C107.017 0.13723 107.044 0.176593 107.062 0.219982C107.08 0.263371 107.09 0.309922 107.09 0.356939C107.09 0.403957 107.08 0.450508 107.062 0.493896C107.044 0.537285 107.017 0.57665 106.983 0.609712L106.565 1.02719C106.532 1.06047 106.492 1.08681 106.448 1.10472C106.404 1.12263 106.357 1.13175 106.309 1.13156Z" fill="#F9A11D"/>
<path d="M106.855 0.223154C106.822 0.190286 106.776 0.171875 106.729 0.171875C106.682 0.171875 106.636 0.190286 106.602 0.223154L106.553 0.272079L106.224 0.598237L106.175 0.64716C106.142 0.680692 106.123 0.725776 106.123 0.772731C106.123 0.819686 106.142 0.864769 106.175 0.898301C106.191 0.915468 106.211 0.92913 106.233 0.938463C106.255 0.947796 106.279 0.952608 106.303 0.952608C106.327 0.952608 106.351 0.947796 106.373 0.938463C106.395 0.92913 106.415 0.915468 106.431 0.898301L106.477 0.852639L106.806 0.526481L106.852 0.480819C106.87 0.464315 106.884 0.444466 106.894 0.422453C106.903 0.40044 106.909 0.376712 106.909 0.352678C106.909 0.328643 106.905 0.304792 106.895 0.282542C106.886 0.260292 106.873 0.240096 106.855 0.223154Z" fill="#F9A11D"/>
<path d="M105.276 1.13177C105.229 1.13195 105.182 1.12283 105.138 1.10492C105.094 1.08701 105.054 1.06067 105.02 1.0274L104.592 0.613176C104.543 0.562411 104.51 0.498473 104.497 0.429204C104.483 0.359936 104.491 0.288353 104.518 0.223241C104.545 0.158128 104.591 0.102319 104.65 0.0626626C104.709 0.023006 104.778 0.00122809 104.849 0C104.944 0.00116914 105.034 0.0385527 105.102 0.10437L105.523 0.521852C105.59 0.589059 105.628 0.679922 105.628 0.774625C105.628 0.869328 105.59 0.960189 105.523 1.0274C105.489 1.06067 105.449 1.08701 105.405 1.10492C105.361 1.12283 105.314 1.13195 105.267 1.13177H105.276Z" fill="#F9A11D"/>
<path d="M105.404 0.898301C105.438 0.864768 105.456 0.819686 105.456 0.772731C105.456 0.725776 105.438 0.680692 105.404 0.647159L105.355 0.598236L105.026 0.272079L104.977 0.223154C104.943 0.190286 104.898 0.171875 104.85 0.171875C104.803 0.171875 104.758 0.190286 104.724 0.223154C104.706 0.239595 104.693 0.25934 104.683 0.281201C104.674 0.303062 104.669 0.326586 104.669 0.350356C104.669 0.374126 104.674 0.39765 104.683 0.419511C104.693 0.441371 104.706 0.461116 104.724 0.477557L104.77 0.523219L105.099 0.849377L105.145 0.89504C105.161 0.912514 105.181 0.926493 105.203 0.936147C105.226 0.945801 105.25 0.950932 105.274 0.951236C105.298 0.951541 105.322 0.947011 105.345 0.937917C105.367 0.928824 105.387 0.915352 105.404 0.898301Z" fill="#F9A11D"/>
<path d="M106.727 2.5695C106.68 2.5698 106.633 2.56071 106.589 2.54279C106.546 2.52486 106.506 2.49845 106.473 2.46513L106.056 2.05091C105.997 1.98219 105.967 1.89423 105.971 1.80444C105.975 1.71465 106.013 1.62957 106.077 1.56602C106.141 1.50247 106.227 1.46509 106.317 1.46126C106.408 1.45744 106.496 1.48745 106.566 1.54537L106.983 1.95959C107.017 1.99304 107.043 2.03274 107.061 2.07639C107.079 2.12005 107.089 2.1668 107.088 2.21399C107.089 2.26073 107.08 2.30709 107.062 2.35025C107.044 2.39342 107.017 2.4325 106.983 2.46513C106.95 2.4987 106.91 2.52524 106.866 2.54317C106.822 2.5611 106.774 2.57005 106.727 2.5695Z" fill="#F9A11D"/>
<path d="M106.855 2.33988C106.872 2.32344 106.886 2.30369 106.896 2.28183C106.905 2.25997 106.91 2.23644 106.91 2.21267C106.91 2.1889 106.905 2.16538 106.896 2.14352C106.886 2.12166 106.872 2.10191 106.855 2.08547L106.809 2.03981L106.48 1.71365L106.434 1.66799C106.4 1.6388 106.355 1.6235 106.31 1.62512C106.265 1.62673 106.222 1.64515 106.19 1.67673C106.157 1.7083 106.138 1.75073 106.136 1.79562C106.134 1.84051 106.149 1.88459 106.178 1.91913L106.227 1.96806L106.556 2.29421L106.605 2.34314C106.639 2.3746 106.684 2.39182 106.731 2.39121C106.777 2.39061 106.822 2.37222 106.855 2.33988Z" fill="#F9A11D"/>
<path d="M108.365 22.3569C107.539 20.6707 106.566 20.0216 105.293 20.276C104.832 20.3937 104.431 20.6774 104.168 21.0718C104.039 21.2595 103.965 21.4793 103.955 21.7064C103.945 21.9336 104 22.1589 104.113 22.3569C104.57 23.0549 105.25 22.8005 105.925 22.6113C107 22.2591 107.529 22.5591 108.069 22.6994C108.115 22.7111 108.163 22.7099 108.208 22.6958C108.253 22.6817 108.293 22.6553 108.324 22.6197C108.355 22.584 108.375 22.5405 108.382 22.494C108.39 22.4476 108.383 22.4001 108.365 22.3569Z" fill="#F9A11D"/>
<path d="M111.278 26.741L110.6 25.4657C110.6 25.4657 109.838 23.9197 109.775 23.7827C109.492 23.1598 109.828 23.5968 108.996 24.6633C108.604 25.1642 108.06 25.5261 107.444 25.6948C106.828 25.8635 106.174 25.8301 105.579 25.5994C104.214 24.9732 104.152 24.4089 103.083 24.0632C102.832 23.9773 102.559 23.9764 102.307 24.0608C102.055 24.1452 101.839 24.3101 101.692 24.5296L100.528 26.7442C100.453 26.8827 100.414 27.0373 100.414 27.1943C100.414 27.3513 100.453 27.5059 100.528 27.6444C100.6 27.7775 100.707 27.8886 100.838 27.9661C100.969 28.0436 101.118 28.0846 101.271 28.0847H110.512C110.664 28.084 110.812 28.0428 110.943 27.9653C111.073 27.8878 111.18 27.777 111.252 27.6444C111.329 27.507 111.372 27.3532 111.376 27.1959C111.381 27.0386 111.347 26.8826 111.278 26.741Z" fill="#F9A11D"/>
</g>
<defs>
<clipPath id="clip0_1687_322">
<rect width="129" height="30" fill="white"/>
</clipPath>
</defs>
</svg>
